<mxfile host="app.diagrams.net" modified="2020-09-17T11:22:51.058Z" agent="5.0 (Macintosh; Intel Mac OS X 10_12_6) AppleWebKit/537.36 (KHTML, like Gecko) Chrome/85.0.4183.102 Safari/537.36" etag="TUNDgM1KudsmqNh1RgWG" version="13.6.10" type="github">
  <diagram id="pTkaRg3z5hCBJYmHVtNs" name="Page-1">
    <mxGraphModel dx="786" dy="514" grid="1" gridSize="10" guides="1" tooltips="1" connect="1" arrows="1" fold="1" page="1" pageScale="1" pageWidth="827" pageHeight="1169" math="0" shadow="0">
      <root>
        <mxCell id="0" />
        <mxCell id="1" parent="0" />
        <mxCell id="clMP0sBCgT8EzZgTwloC-6" style="edgeStyle=orthogonalEdgeStyle;rounded=0;orthogonalLoop=1;jettySize=auto;html=1;entryX=0;entryY=0.5;entryDx=0;entryDy=0;" edge="1" parent="1" source="clMP0sBCgT8EzZgTwloC-1" target="clMP0sBCgT8EzZgTwloC-4">
          <mxGeometry relative="1" as="geometry">
            <mxPoint x="320" y="65" as="targetPoint" />
            <Array as="points">
              <mxPoint x="285" y="95" />
              <mxPoint x="285" y="75" />
            </Array>
          </mxGeometry>
        </mxCell>
        <mxCell id="clMP0sBCgT8EzZgTwloC-7" style="edgeStyle=orthogonalEdgeStyle;rounded=0;orthogonalLoop=1;jettySize=auto;html=1;exitX=1;exitY=0.5;exitDx=0;exitDy=0;entryX=0;entryY=0.5;entryDx=0;entryDy=0;" edge="1" parent="1" source="clMP0sBCgT8EzZgTwloC-1" target="clMP0sBCgT8EzZgTwloC-5">
          <mxGeometry relative="1" as="geometry" />
        </mxCell>
        <mxCell id="clMP0sBCgT8EzZgTwloC-1" value="分析问题与数据" style="rounded=1;whiteSpace=wrap;html=1;" vertex="1" parent="1">
          <mxGeometry x="110" y="80" width="140" height="30" as="geometry" />
        </mxCell>
        <mxCell id="clMP0sBCgT8EzZgTwloC-4" value="数据预处理" style="rounded=1;whiteSpace=wrap;html=1;" vertex="1" parent="1">
          <mxGeometry x="320" y="60" width="120" height="30" as="geometry" />
        </mxCell>
        <mxCell id="clMP0sBCgT8EzZgTwloC-5" value="确定样本数据" style="rounded=1;whiteSpace=wrap;html=1;" vertex="1" parent="1">
          <mxGeometry x="320" y="100" width="120" height="30" as="geometry" />
        </mxCell>
      </root>
    </mxGraphModel>
  </diagram>
</mxfile>
